<svg id="Capa_1" enable-background="new 0 0 497.001 497.001" height="512" viewBox="0 0 497.001 497.001" width="512" xmlns="http://www.w3.org/2000/svg"><g><path d="m54.097 434.985 17.664-103.911-17.664-128.681h362.298v235.305z" fill="#ffe8c8"/><g><path d="m54.101 202.39v13.8h84.87c7.18 0 13 5.82 13 13v103.84c0 8.29 6.71 15 15 15h13l-2.514-4.283c2.782-2.722 4.514-6.514 4.514-10.717v-103.84c0-7.18 5.82-13 13-13h43.12c7.17 0 13 5.82 13 13v4.95c0 4.83 1.96 9.2 5.12 12.37 3.17 3.16 7.55 5.12 12.38 5.12h13l-.345-5.439c2.989-3.138 4.835-7.375 4.835-12.051h.01v-4.95c0-7.18 5.82-13 13-13h57.67c11.04 0 20 8.95 20 20v185h39.63v-218.8z" fill="#fdd9b4"/></g><path d="m54.101 434.99 10.209-43.381-10.209-22.899v-57.021l10.209-19.143-10.209-10.857v-79.299h25v232.6z" fill="#fdd9b4"/><path d="m416.391 368.69v69.01l-362.29-2.71 10.209-33.14-10.209-33.14c19.79.42 20.25 9.98 40.93 9.98 21.15 0 21.15-10 42.29-10 21.15 0 21.15 10 42.3 10s21.15-10 42.29-10c21.15 0 21.15 10 42.3 10s21.15-10 42.3-10 21.15 10 42.3 10c21.16 0 21.16-10 42.31-10z" fill="#fdd9b4"/><path d="m416.391 368.69v52.5h-39.63v-50.38c3.66-1.24 8.07-2.12 14.36-2.12z" fill="#fcc097"/><path d="m54.101 434.99v-66.28c12.89.27 17.58 4.43 25 7.29v58.99z" fill="#fcc097"/><path d="m389.757 311.689h-335.66l14.808-9.721-14.808-20.279h335.66z" fill="#ffbf54"/><g fill="#ffa442"><path d="m376.761 281.689h13v30h-13z"/><path d="m151.971 281.689h30v30h-30z"/><path d="m54.101 281.689h25v30h-25z"/></g><g><path d="m452.246 182.704c0-23.472-19.028-42.345-42.5-42.5-23.2-.153-23.441 16.329-28.33 28.997-2.962 7.676-21.115 13.785-29.343 13.785h-285.472l-9.44 2.385c-5.523 0-10 4.477-10 10l1.149 9.404c0 5.523 3.669 8.851 9.191 8.851l7.66 2.563h86.809c7.18 0 20.085 8.896 20.085 16.075 0 0-3.064 95.739-3.064 95.745 0 8.284 2.694 20.023 10.979 20.023 8.284 0 15-6.716 15-15 0-.005-.001-.011-.001-.016h.001v-103.826c0-7.18 5.82-13 13-13h43.117c7.18 0 19.505 5.594 19.505 12.774v4.946s1.333 17.716 10.995 17.716 17.494-7.829 17.499-17.49h.001v-4.946c0-7.18 5.82-13 13-13h57.671c11.046 0 26.819 9.115 26.819 20.16l-3.671 184.84 26.553 5.373 32.787-5.372v-238.212h-.007c0-.092.007-.183.007-.275z" fill="#e03c3e"/></g><g><path d="m188.471 345.39c-2.42 1.67-5.35 2.64-8.5 2.64-8.29 0-15-6.71-15-15v-103.84c0-7.18-5.82-13-13-13h17c7.18 0 13 5.82 13 13v103.84c0 5.129 2.57 9.66 6.5 12.36z" fill="#c42430"/></g><g><path d="m61.761 192.989v13.2c0 5.52 4.47 10 10 10h-17c-5.53 0-10-4.48-10-10v-13.2c0-5.53 4.47-10 10-10h17c-5.53 0-10 4.47-10 10z" fill="#c42430"/></g><g><path d="m290.091 249.429c-2.52 1.4-5.42 2.2-8.5 2.2-4.83 0-9.21-1.96-12.38-5.12-3.16-3.17-5.12-7.54-5.12-12.37v-4.95c0-7.18-5.83-13-13-13h17c7.17 0 13 5.82 13 13v4.95c0 4.83 1.96 9.2 5.12 12.37 1.15 1.141 2.45 2.131 3.88 2.92z" fill="#c42430"/></g><g><path d="m406.761 236.189v185l-10.185 4.097-6.815-4.097v-185c0-11.05-8.96-20-20-20h17c11.04 0 20 8.951 20 20z" fill="#c42430"/></g><g><path d="m369.071 182.989h-17c8.23 0 15.66-5.02 18.62-12.7 4.89-12.67 15.85-30.24 39.05-30.09 2.83.02 5.6.31 8.28.85-17.32 3.65-26.1 18.27-30.33 29.24-2.96 7.68-10.39 12.7-18.62 12.7z" fill="#c42430"/></g><g><path d="m265.622 77.466-5.136-28.027-2.814-2.96c-.629-3.434-2.223-2.329-4.255.511l-16.665 25.362c-9.307 13.003-12.36 28.282-3.915 41.861l6.038 9.709 4.67-10.231c8.3-5.44 18.917-9.662 21.383-18.868 1.485-5.555 1.773-11.47.694-17.357z" fill="#92b738"/></g><g><path d="m244.799 99.683c-2.514 1.159-5.412-.461-5.702-3.214-.996-9.439 1.408-19.131 7.165-27.169l14.22-19.86-.62-3.39c-.63-3.44-5.07-4.43-7.1-1.59l-18.5 25.84c-8.023 11.204-9.531 25.618-4.396 38.082l-.014.008c1.528 4.066 6.751 11.734 9.02 15.53l8.97-5.87-.001-.002.561-.368c8.29-5.44 14.06-13.65 16.52-22.86-6.979.29-13.81 1.953-20.123 4.863z" fill="#87a733"/></g><g><path d="m290.173 116.158 21.845 15.635 1.143 4.216c2.839 2.032-.14 2.605-3.574 3.234l-27.064 3.574c-15.729 2.883-30.87.778-39.559-12.646l-6.213-9.598 7.984 4.372c.529-.325 2.782-10.966 3.322-11.264 13.292-7.329 29.684-6.421 42.116 2.477z" fill="#92b738"/></g><g><path d="m314.561 141.859-31.26 5.73c-15.73 2.88-31.65-3.99-40.34-17.42l-6.21-9.59 9.7-5.96c.53-.33 1.07-.64 1.61-.93l2.9 4.48c8.69 13.43 24.61 20.3 40.34 17.42l20.72-3.8 4.13 2.96c2.84 2.031 1.84 6.48-1.59 7.11z" fill="#87a733"/></g><g><path d="m246.01 171.518c20.748-13.165 12.216-32.439-.949-53.187-9.874-15.561-19.549-27.531-32.523-26.99-4.325.18-10.786 6.144-15.973 9.435-20.748 13.165-24.511 62.333-24.511 62.333s53.208 21.574 73.956 8.409z" fill="#e03c3e"/></g><g><path d="m256.931 159.55c-1.82 4.38-5.29 8.4-10.92 11.97-20.75 13.16-65.92 18.23-79.08-2.51-13.17-20.75 10.66-59.46 31.4-72.63 4.97-3.15 9.48-4.72 13.65-5.01-14.4 17.39-24.74 42.37-15.05 57.64 9.9 15.599 37.9 16.599 60 10.54z" fill="#c42430"/></g><path d="m495.301 438.042c4.598-7.326-.673-16.844-9.328-16.844h-474.944c-8.656 0-6.467 9.174-1.869 16.5l4.796 8.178c1.831 2.917 5.034 4.687 8.48 4.687l452.766 1.021c3.446 0 6.649-1.771 8.48-4.687l10.89-7.696z" fill="#e9edf1"/><path d="m494.571 439.2-6.47 10.31c-1.83 2.92-5.03 4.69-8.48 4.69h-462.24c-3.45 0-6.65-1.77-8.48-4.69l-7.2-11.47c-4.6-7.32.67-16.84 9.33-16.84h4.74c.24.62.55 1.24.93 1.84l7.2 11.47c1.83 2.92 5.03 4.69 8.48 4.69z" fill="#dce6eb"/></g></svg>