<svg height="512pt" viewBox="-55 0 512 512.00056" width="512pt" xmlns="http://www.w3.org/2000/svg"><path d="m278.082031 199.035156c-5.113281-2.636718-9.648437-5.644531-12.996093-9.5625-6.488282-7.585937-10.25-17.617187-10.25-28.652344l4.539062-37.292968c0-14.054688 0-29.207032 0-34.222656 0-49.714844-40.617188-89.9375-90.484375-89.2968755-49.078125.6328125-88.125 41.5429685-88.125 90.6249995v32.890626l4.535156 37.296874c0 11.023438-3.753906 21.058594-10.246093 28.652344-3.351563 3.917969-7.886719 6.921875-13 9.558594-16.816407 8.671875-20.84375 57.308594 17.535156 67.238281h180.917968l.015626.007813c38.40625-9.914063 34.378906-58.570313 17.558593-67.242188zm0 0" fill="#935d38"/><path d="m260.503906 266.273438.019532.003906c.007812 0 .015624-.003906.023437-.003906zm0 0" fill="#7f4d2a"/><path d="m101.019531 199.035156c5.113281-2.636718 9.648438-5.644531 13-9.5625 6.492188-7.59375 10.246094-17.628906 10.246094-28.652344l-4.535156-37.296874v-32.890626c0-42.804687 29.703125-79.386718 69.855469-88.464843-6.652344-1.484375-13.574219-2.2500002-20.695313-2.1601565-49.078125.6328125-88.125 41.5429685-88.125 90.6249995v32.890626l4.535156 37.296874c0 11.023438-3.753906 21.058594-10.246093 28.652344-3.351563 3.917969-7.886719 6.921875-13 9.558594-16.816407 8.671875-20.84375 57.308594 17.535156 67.238281h38.964844c-38.378907-9.929687-34.351563-58.566406-17.535157-67.234375zm0 0" fill="#7f4d2a"/><path d="m124.699219 460.046875h.511719c-.488282-1.492187-.761719-3.078125-.761719-4.726563v-166.628906c0-8.421875 6.890625-15.3125 15.3125-15.3125h138.90625l-61.34375-23.757812c-6.363281-2.464844-10.554688-8.585938-10.554688-15.40625v-18.308594c-10.296875 7.121094-22.71875 11.300781-36.070312 11.257812-14.535157-.050781-27.238281-4.226562-37.5-11.136718v18.191406c0 6.820312-4.1875 12.9375-10.546875 15.402344l-86.660156 33.597656s-35.992188 14.796875-35.992188 55.824219v89.238281h49.261719c6.625 0 11.996093 5.371094 11.996093 11.996094v14.925781c0 2.675781 2.167969 4.84375 4.84375 4.84375zm0 0" fill="#fc5f61"/><path d="m30.703125 324.621094c0-25.457032 13.847656-40.804688 24.367187-48.796875l-19.078124 7.394531s-35.98828175 14.796875-35.98828175 55.824219v89.238281h30.69921875zm0 0" fill="#ef4d55"/><path d="m124.449219 297.699219v-9.007813c0-8.425781 6.890625-15.316406 15.3125-15.316406h94.546875c2.429687-4.660156 4.503906-9.609375 6.175781-14.785156l-23.160156-8.96875c-6.359375-2.464844-10.554688-8.585938-10.554688-15.40625v-23.460938c-10.292969 7.121094-22.71875 11.300782-36.066406 11.257813-14.535156-.046875-27.238281-4.226563-37.5-11.136719v23.34375c0 6.820312-4.191406 12.9375-10.550781 15.402344l-23.0625 8.941406c5.039062 15.644531 13.734375 29.167969 24.859375 39.136719zm0 0" fill="#f4bda4"/><path d="m141.835938 247.941406c5.421874-.300781 10.75-1.8125 15.355468-4.691406 3.671875-2.292969 6.574219-5.242188 6.574219-9.03125v-12.5625c-11.660156-1.132812-21.972656-4.992188-30.5625-10.78125v23.34375c0 6.246094-3.523437 11.898438-9 14.699219zm0 0" fill="#efa78b"/><path d="m113.429688 470.632812h26.332031c-7.511719 0-13.789063-5.484374-15.0625-12.644531h-58.597657c-2.675781 0-4.84375-2.171875-4.84375-4.847656v-14.925781c0-6.625-5.371093-11.992188-11.992187-11.992188h-49.265625v52.839844c0 18.191406 14.75 32.9375 32.941406 32.9375h80.335938v-.007812c-8.351563-.082032-15.160156-6.933594-15.160156-15.304688v-10.742188c0-8.421874 6.890624-15.3125 15.3125-15.3125zm0 0" fill="#f4bda4"/><path d="m30.691406 481.121094v-54.898438h-30.691406v52.839844c0 18.191406 14.75 32.9375 32.941406 32.9375h19.203125c-12.527343-4.660156-21.453125-16.726562-21.453125-30.878906zm0 0" fill="#efa78b"/><path d="m386.429688 470.390625h-273.796876c-8.46875 0-15.402343 6.929687-15.402343 15.402344v10.804687c0 8.472656 6.933593 15.402344 15.402343 15.402344h273.796876c8.472656 0 15.402343-6.929688 15.402343-15.402344v-10.804687c0-8.472657-6.929687-15.402344-15.402343-15.402344zm0 0" fill="#e0d9d5"/><path d="m386.429688 484.527344h-273.796876c-5.402343 0-10.171874-2.828125-12.921874-7.070313-1.5625 2.410157-2.480469 5.265625-2.480469 8.335938v10.804687c0 8.472656 6.933593 15.402344 15.402343 15.402344h273.796876c8.472656 0 15.402343-6.929688 15.402343-15.402344v-10.804687c0-3.066407-.917969-5.925781-2.480469-8.335938-2.75 4.242188-7.515624 7.070313-12.921874 7.070313zm0 0" fill="#cec8c6"/><path d="m360.972656 270.953125h-222.882812c-8.46875 0-15.402344 6.929687-15.402344 15.402344v170.691406c0 8.472656 6.933594 15.402344 15.402344 15.402344h222.882812c8.472656 0 15.402344-6.929688 15.402344-15.402344v-170.691406c0-8.472657-6.929688-15.402344-15.402344-15.402344zm0 0" fill="#edebed"/><path d="m152.855469 457.046875v-170.691406c0-8.472657 6.929687-15.402344 15.402343-15.402344h-30.167968c-8.46875 0-15.402344 6.929687-15.402344 15.402344v170.691406c0 8.472656 6.933594 15.402344 15.402344 15.402344h30.167968c-8.472656 0-15.402343-6.929688-15.402343-15.402344zm0 0" fill="#e0d9d5"/><path d="m277.972656 350.859375c-8.957031-1.90625-18.351562-2.925781-28.035156-2.925781s-19.078125 1.019531-28.039062 2.925781c-1.960938.417969-3.417969 2.117187-3.421876 4.125v.03125c0 22.535156 11.570313 42.359375 29.089844 53.875 1.4375.945313 3.300782.945313 4.738282 0 17.519531-11.515625 29.089843-31.339844 29.089843-53.875 0-.011719 0-.023437 0-.03125 0-2.007813-1.457031-3.707031-3.421875-4.125zm0 0" fill="#6397d6"/><path d="m248.644531 355.015625c0-.011719 0-.023437 0-.03125 0-2.007813 1.457031-3.707031 3.421875-4.125 4.222656-.898437 8.550782-1.59375 12.953125-2.082031-4.933593-.550782-9.96875-.84375-15.085937-.84375-9.683594 0-19.078125 1.019531-28.035156 2.925781-1.964844.417969-3.421876 2.117187-3.421876 4.125v.03125c0 22.535156 11.570313 42.359375 29.089844 53.875 1.4375.945313 3.300782.945313 4.738282 0 4.703124-3.09375 8.976562-6.792969 12.714843-10.976563-10.179687-11.390624-16.375-26.414062-16.375-42.898437zm0 0" fill="#4686c6"/><path d="m61.496094 377.546875c-4.375-.132813-7.964844 3.375-7.964844 7.722656v66.210938c0 3.59375 2.914062 6.507812 6.507812 6.507812h8.945313v-72.394531c0-4.230469-3.257813-7.921875-7.488281-8.046875zm0 0" fill="#ef4d55"/><path d="m233.632812 116.015625v47.25c0 .464844-.027343.914063-.035156 1.375 16.859375 3.230469 30.898438-8.886719 30.898438-24.3125 0-15.414063-14.019532-27.515625-30.863282-24.3125zm0 0" fill="#f4bda4"/><path d="m106.503906 116.011719v47.253906c0 .464844.027344.914063.035156 1.375-16.859374 3.230469-30.898437-8.886719-30.898437-24.3125 0-15.414063 14.019531-27.523437 30.863281-24.316406zm0 0" fill="#f4bda4"/><path d="m255.191406 121.042969c-5.59375-4.449219-13.230468-6.613281-21.558594-5.027344v47.25c0 .460937-.027343.914063-.035156 1.375 8.34375 1.597656 15.992188-.566406 21.59375-5.023437zm0 0" fill="#efa78b"/><path d="m106.503906 159.617188c-5.71875-4.550782-9.304687-11.496094-9.304687-19.289063s3.585937-14.734375 9.304687-19.285156v-5.03125c-16.84375-3.207031-30.863281 8.902343-30.863281 24.316406 0 15.425781 14.039063 27.542969 30.898437 24.3125-.007812-.460937-.035156-.914063-.035156-1.375zm0 0" fill="#efa78b"/><path d="m207.441406 115.8125c-17.039062 0-31.382812-11.402344-35.890625-26.957031-.015625-.054688-.035156-.109375-.050781-.164063-.183594-.644531-.757812-1.097656-1.429688-1.097656-.671874 0-1.246093.453125-1.429687 1.097656-.015625.058594-.039063.109375-.054687.167969-4.578126 15.808594-19.121094 26.953125-35.886719 26.953125h-27.398438v47.449219c0 33.285156 26.019531 63.710937 65.433594 63.84375 35.257813.117187 64.105469-29.214844 64.105469-64.472657v-46.820312zm0 0" fill="#f9cbb4"/><path d="m146.316406 163.257812v-50.042968c-4.242187 1.664062-8.835937 2.597656-13.617187 2.597656h-27.398438v47.445312c0 33.285157 26.019531 63.714844 65.433594 63.847657 6.964844.023437 13.675781-1.117188 19.96875-3.214844-27.363281-8.664063-44.386719-33.710937-44.386719-60.632813zm0 0" fill="#f4bda4"/></svg>