<svg id="Layer_1" enable-background="new 0 0 102 102" viewBox="0 0 102 102" xmlns="http://www.w3.org/2000/svg"><g><g><g><path d="m99 32.6333v55.2611c0 5.84731-4.74274 10.59005-10.6002 10.59005h-74.79954c-5.84738-.00001-10.60026-4.74274-10.60026-10.59006v-55.26109z" fill="#e4e3ff"/></g></g><g><g><path d="m89.76421 82.73978c0 2.577-2.08906 4.66605-4.66605 4.66605h-68.1936c-2.57699 0-4.66605-2.08906-4.66605-4.66605v-35.84696c0-2.57699 2.08906-4.66605 4.66605-4.66605h68.1936c2.577 0 4.66605 2.08907 4.66605 4.66605z" fill="#fff"/></g></g><g><g><g><g><path d="m41.96383 77.12794c-.38795 0-.75808-.22416-.92632-.60121l-8.79605-19.72977c-.22861-.51115.00198-1.11039.51264-1.33851.51363-.22762 1.11039.00248 1.33801.51314l8.79605 19.72976c.22861.51116-.00198 1.1104-.51264 1.33851-.13458.05938-.27413.08808-.41169.08808z" fill="#474646"/></g></g></g><g><g><g><path d="m23.96748 64.12162c-.49893.19767-1.05324-.08183-1.21009-.59507-1.8454-6.03821 1.23024-12.58134 7.19549-14.9447 5.9725-2.36623 12.69518.29494 15.48593 5.95861.23721.4814.02473 1.0647-.4742 1.26237z" fill="#7979f7"/></g></g><g><g><path d="m44.96521 55.79976-20.99782 8.32009c-.49656.2027-1.05392-.08109-1.20596-.59794-.11146-.35467-.20269-.71948-.27364-1.07421l16.48377-6.53958c2.09721-.83202 2.69919-3.49917 1.1788-5.1662-.9558-1.04798-2.26935-2.11451-4.06261-2.90753 3.93203.52699 7.49917 2.95913 9.35373 6.70875.23306.47634.02029 1.06407-.47627 1.25662z" fill="#5e5eef"/></g></g><g><g><path d="m30.44064 61.55704c-2.4901-6.28518-2.70621-12.09626-.48531-12.97616 2.2236-.88096 6.04599 3.50137 8.5361 9.78654z" fill="#f9b938"/></g></g><g><g><path d="m38.48952 58.36371-8.04645 3.19226c-.26349-.65874-.49656-1.30733-.69925-1.94579l3.05154-1.21279c1.86673-.7419 2.64054-2.94502 1.69343-4.71649-1.20614-2.25596-2.5444-4.07114-3.80251-5.19791 2.25988.1419 5.56359 4.23603 7.80324 9.88072z" fill="#ecb021"/></g></g></g></g><g><g><path d="m99 24.80983v7.82347h-96v-7.82347c0-5.85752 4.75288-10.60026 10.60026-10.60026h74.79954c5.85746 0 10.6002 4.74273 10.6002 10.60026z" fill="#fc6559"/></g></g><g><g><path d="m99 24.80983v7.82347h-96v-4.04348h86.14527c2.77853 0 5.03097-2.25244 5.03097-5.03097v-2.79251c0-2.11805-.61823-4.08406-1.68229-5.73592 3.82056 1.60121 6.50605 5.37105 6.50605 9.77941z" fill="#f05543"/></g></g><g><g><path d="m99 32.6333v55.2611c0 5.84731-4.74274 10.59005-10.6002 10.59005h-74.79954c-4.39821 0-8.1782-2.68549-9.7794-6.49591 1.52011.85129 3.28343 1.33771 5.15827 1.33771h74.79955c5.85746 0 10.6002-4.74274 10.6002-10.59011v-50.10284z" fill="#d0d0f7"/></g></g><g><g><path d="m51.54221 78.79396c-3.66853 2.21936-6.83035 5.14812-9.32335 8.61396h-25.31489c-2.57409 0-4.66171-2.08762-4.66171-4.67179v-2.493c5.72577-4.39816 12.89056-7.01276 20.66338-7.01276 6.88101 0 13.28575 2.0471 18.63657 5.56359z" fill="#f7c9a9"/></g></g><g><g><path d="m51.54221 78.79396c-3.66853 2.21936-6.83035 5.14812-9.32335 8.61396h-25.31489c-2.40183 0-4.38807-1.82412-4.64142-4.17523.76006.54728 1.69237.87157 2.70578.87157h24.07735c.77915 0 1.50037-.37614 1.97966-.99043 1.93082-2.47471 4.21661-4.64631 6.78753-6.43786 1.28699.61817 2.53352 1.32756 3.72934 2.11799z" fill="#f0b68e"/></g></g><g><g><path d="m89.75774 83.02999c-.15198 2.45249-2.18893 4.37793-4.66164 4.37793h-42.87725c2.493-3.46584 5.65483-6.3946 9.32335-8.61396 4.76296-2.89833 10.36713-4.56033 16.34626-4.56033 8.49235 0 16.19422 3.35438 21.86928 8.79636z" fill="#f7c9a9"/></g></g><g><g><path d="m89.75774 83.02999c-.15198 2.45249-2.18893 4.37793-4.66164 4.37793h-42.87725c.80057-1.11472 1.662-2.16865 2.6146-3.16183h37.8102c2.14841 0 3.97253-1.44917 4.50961-3.44555.9121.68911 1.78362 1.43903 2.60448 2.22945z" fill="#f0b68e"/></g></g><g><g><g><path d="m31.13296 8.04243v11.52697c0 2.50012-2.02675 4.52687-4.52687 4.52687h-.00001c-2.50012 0-4.52687-2.02675-4.52687-4.52687v-11.52697c0-2.50012 2.02675-4.52687 4.52687-4.52687h.00001c2.50012-.00001 4.52687 2.02674 4.52687 4.52687z" fill="#474646"/></g></g><g><g><path d="m79.92357 8.04243v11.52697c0 2.50012-2.02675 4.52687-4.52687 4.52687h-.00001c-2.50012 0-4.52687-2.02675-4.52687-4.52687v-11.52697c0-2.50012 2.02675-4.52687 4.52687-4.52687h.00001c2.50012-.00001 4.52687 2.02674 4.52687 4.52687z" fill="#474646"/></g></g></g><g><g><g><path d="m31.13218 8.03789v11.53257c0 2.50315-2.02681 4.52996-4.52996 4.52996-1.24647 0-2.37134-.5067-3.19219-1.32756-.46619-.46619-.831-1.0337-1.05398-1.67215.41553.13175.86143.20269 1.32762.20269 2.50308 0 4.5299-2.02681 4.5299-4.5299v-11.53256c0-.53714-.09123-1.04384-.26349-1.52011.7094.22292 1.3377.60802 1.85455 1.12487.82085.82086 1.32755 1.94572 1.32755 3.19219z" fill="#2d2c2c"/></g></g><g><g><path d="m79.92774 8.03789v11.53257c0 2.50315-2.02682 4.52996-4.52996 4.52996-1.24648 0-2.38148-.5067-3.20234-1.32756-.46619-.46619-.831-1.0337-1.05399-1.67215.42567.13175.87151.20269 1.33771.20269 2.50314 0 4.52996-2.02681 4.52996-4.5299v-11.53256c0-.53714-.09123-1.04384-.2635-1.52011.7094.22292 1.3377.60802 1.85449 1.12487.82093.82086 1.32763 1.94572 1.32763 3.19219z" fill="#2d2c2c"/></g></g></g><g><g><g><path d="m71.052 58.48527c0 3.35882-2.72167 6.08044-6.08044 6.08044-3.35882 0-6.08831-2.72162-6.08831-6.08044s2.7295-6.08044 6.08831-6.08044c3.35877 0 6.08044 2.72162 6.08044 6.08044z" fill="#fc6559"/></g></g><g><g><path d="m71.05016 58.48532c0 3.35688-2.72308 6.07997-6.07996 6.07997-2.0658 0-3.88508-1.02115-4.9884-2.60567.75114.34036 1.58452.52813 2.46482.52813 3.35688 0 6.07997-2.72301 6.07997-6.07996 0-1.29108-.39903-2.48832-1.09158-3.47422 2.13623.93896 3.61515 3.07517 3.61515 5.55175z" fill="#e24b40"/></g></g><g><g><g><path d="m64.96737 50.47603c-.56014 0-1.0134-.45375-1.0134-1.0134v-1.88628c0-.55965.45326-1.0134 1.0134-1.0134.56015 0 1.01341.45375 1.01341 1.0134v1.88628c0 .55965-.45326 1.0134-1.01341 1.0134z" fill="#474646"/></g></g></g><g><g><g><path d="m58.58805 53.11891c-.25929 0-.51858-.09896-.71651-.2969l-1.33406-1.33405c-.39586-.39586-.39586-1.03716 0-1.43302s1.03716-.39586 1.43302 0l1.33405 1.33405c.39586.39586.39586 1.03716 0 1.43302-.19791.19793-.4572.2969-.7165.2969z" fill="#474646"/></g></g></g><g><g><g><path d="m55.94469 59.49872h-1.88628c-.56015 0-1.01341-.45376-1.01341-1.0134 0-.55965.45326-1.01341 1.01341-1.01341h1.88628c.56015 0 1.01341.45376 1.01341 1.01341 0 .55964-.45327 1.0134-1.01341 1.0134z" fill="#474646"/></g></g></g><g><g><g><path d="m57.254 67.21259c-.25929 0-.51858-.09897-.71651-.2969-.39586-.39586-.39586-1.03716 0-1.43302l1.33406-1.33405c.39586-.39586 1.03716-.39586 1.43302 0s.39586 1.03716 0 1.43302l-1.33405 1.33405c-.19794.19793-.45723.2969-.71652.2969z" fill="#474646"/></g></g></g><g><g><g><path d="m64.96737 70.40768c-.56014 0-1.0134-.45376-1.0134-1.0134v-1.88628c0-.55965.45326-1.0134 1.0134-1.0134.56015 0 1.01341.45376 1.01341 1.0134v1.88628c0 .55965-.45326 1.0134-1.01341 1.0134z" fill="#474646"/></g></g></g><g><g><g><path d="m72.68173 67.21259c-.25928 0-.51858-.09897-.71651-.2969l-1.33406-1.33405c-.39586-.39587-.39586-1.03716 0-1.43302.39587-.39586 1.03716-.39586 1.43302 0l1.33406 1.33405c.39586.39587.39586 1.03716 0 1.43302-.19793.19793-.45722.2969-.71651.2969z" fill="#474646"/></g></g></g><g><g><g><path d="m75.87634 59.49872h-1.88628c-.56015 0-1.0134-.45376-1.0134-1.0134 0-.55965.45325-1.01341 1.0134-1.01341h1.88628c.56014 0 1.0134.45376 1.0134 1.01341.00001.55964-.45325 1.0134-1.0134 1.0134z" fill="#474646"/></g></g></g><g><g><g><path d="m71.34768 53.11891c-.25929 0-.51858-.09896-.71651-.2969-.39586-.39586-.39586-1.03716 0-1.43302l1.33406-1.33405c.39586-.39586 1.03716-.39586 1.43302 0s.39586 1.03716 0 1.43302l-1.33406 1.33405c-.19793.19793-.45723.2969-.71651.2969z" fill="#474646"/></g></g></g></g><g><g><g><path d="m49.82458 19.6773h-7.90332c-.55273 0-1-.44775-1-1s.44727-1 1-1h7.90332c.55273 0 1 .44775 1 1s-.44726 1-1 1z" fill="#ff8d8d"/></g></g><g><g><path d="m55.69177 19.6773h-1.29102c-.55273 0-1-.44775-1-1s.44727-1 1-1h1.29102c.55273 0 1 .44775 1 1s-.44726 1-1 1z" fill="#ff8d8d"/></g></g></g></g></svg>