<?xml version="1.0" encoding="utf-8"?>
<!-- Generator: Adobe Illustrator 27.5.0, SVG Export Plug-In . SVG Version: 6.00 Build 0)  -->
<svg version="1.1" id="Layer_1" xmlns="http://www.w3.org/2000/svg" x="0px" y="0px"
	 viewBox="0 0 2000 2000" style="enable-background:new 0 0 2000 2000;" xml:space="preserve">
<g>
	<rect style="fill:transparent;" width="2000" height="2000"/>
	<g>
		<path style="fill:#FFCC66;" d="M1438.306,183.214c23.563,49.978,70.995,98.933,148.515,123.94
			c37.235,13.026,78.589,18.584,114.38,20.916c36.006,2.196,66.451,1.166,86.814-2.127c20.578-3.43,31.074-9.124,32.121-19.396
			c1.261-10.409-6.927-25.396-18.772-50.558c-11.281-24.011-23.799-55.808-31.954-88.758c-8.491-32.991-12.619-67.135-14.877-96.792
			c-2.271-28.029-2.888-52.088-7.07-70.439h-308.738c-7.065,10.095-12.505,21.232-16.456,33.114
			C1408,80.957,1415.443,132.462,1438.306,183.214z"/>
		<path style="fill:#FFCC66;" d="M477.689,1680.375c-99.358-113.7-306.803-97.342-477.689,32.226V2000h489.22
			C546.54,1881.714,546.737,1759.39,477.689,1680.375z"/>
		<path style="fill:#FFCC66;" d="M1709.827,1882.126c-15.007,38.116-24.284,78.243-27.913,117.874H2000v-368.852
			c-53.957,9.321-111.373,34.029-161.037,73.866C1783.049,1749.157,1736.872,1812.277,1709.827,1882.126z"/>
		<path style="fill:#FFCC66;" d="M146.337,502.752c45.391,10.508,89.939,10.387,128.542,3.306
			c38.725-7.001,71.504-20.962,96.173-36.286c50.08-32.063,64.185-62.134,63.16-75.373c-1.459-14.249-17.868-14.599-41.474-10.484
			c-23.779,4.138-55.568,12.007-91.068,13.419c-35.325,1.697-74.36-3.063-108.586-17.599c-35.17-14.433-59.735-34.858-76.671-54.874
			c-16.977-20.197-26.326-39.984-32.019-57.323c-10.708-35.464-9.019-61.201-6.394-90.329c3.182-28.628,9.865-51.574,0.68-77.724
			c-4.661-12.94-13.186-27.36-27.436-42.429C39.02,44.8,22.787,30.786,0,27.52v402.307c5.124,4.287,10.371,8.435,15.741,12.418
			C55.239,471.788,101.14,492.633,146.337,502.752z"/>
		<g>
			<path style="fill:#FFCC66;" d="M868.512,1711.372l-8.432,6.463c-5.238,4.015-6.239,11.586-2.224,16.824L1061.234,2000h43.625
				l-219.522-286.403C881.321,1708.358,873.751,1707.357,868.512,1711.372z"/>
			<path style="fill:#FFCC66;" d="M913.484,1676.903l-8.432,6.463c-5.238,4.015-6.239,11.586-2.224,16.824L1132.625,2000h43.625
				l-245.942-320.873C926.293,1673.889,918.722,1672.888,913.484,1676.903z"/>
			<path style="fill:#FFCC66;" d="M958.456,1642.433l-8.432,6.463c-5.238,4.015-6.239,11.586-2.224,16.824L1204.017,2000h43.625
				L975.28,1644.657C971.265,1639.419,963.694,1638.418,958.456,1642.433z"/>
		</g>
		<g>
			<path style="fill:#FFCC66;" d="M502.885,93.056c-9.923,24.333-40.505,48.667-70.858,73c-3.882,3.277-1.444,7.519,4.596,9.425
				c3.253,1.023,6.39,2.046,9.407,3.069c5.593,1.906,13.022,0.785,17.272-2.493c32.689-24.333,61.918-48.667,70.32-73
				c9.969-24.333-0.888-48.667-12.263-73C516.726,20.038,512.004,10.019,508.827,0h-21.306c2.336,6.685,5.116,13.37,7.819,20.055
				C505.43,44.389,514.487,68.722,502.885,93.056z"/>
			<path style="fill:#FFCC66;" d="M552.523,109.423c-8.13,24.333-37.486,48.667-73.098,73c-4.558,3.277-4.852,7.519-1.419,9.425
				c1.877,1.023,3.614,2.046,5.21,3.069c2.904,1.906,9.342,0.785,14.931-2.493c42.286-24.333,73.245-48.667,82.063-73
				c10.197-24.333-1.747-48.667-13.476-73c-7.5-15.475-14.914-30.95-16.851-46.425h-26.074c3.182,12.141,9.087,24.282,14.939,36.423
				C550.54,60.757,562.145,85.09,552.523,109.423z"/>
			<path style="fill:#FFCC66;" d="M596.02,125.79c-9.845,24.333-42.634,48.667-90.355,73c-6.16,3.277-10.285,7.519-9.693,9.425
				c0.371,1.023,0.603,2.046,0.7,3.069c0.076,1.907,6.205,0.785,13.924-2.493c57.834-24.333,94.507-48.667,106.799-73
				c13.483-24.333,2.584-48.667-7.254-73C601.46,41.861,593.559,20.931,598.899,0h-30.957c0.004,17.597,7.954,35.194,16.18,52.79
				C595.373,77.124,607.169,101.457,596.02,125.79z"/>
		</g>
		<g>
			<path style="fill:#FFCC66;" d="M1981.944,282.013c-3.913-2.113-14.911-2.199-24.182-0.336c-4.928,0.973-9.945,1.996-15.052,3.07
				c-9.614,2.057-12.773,4.62-7.318,5.867c159.396,38.495-141.381,335.259-132.226,458.077c0.24,4.174,5.627,7.408,11.791,7.29
				c3.272-0.044,6.611-0.125,10.018-0.245c6.422-0.264,10.361-3.266,8.98-6.8c-28.39-77.067,125.521-256.449,166.046-372.195
				v-79.824C1995.642,291.018,1989.705,286.004,1981.944,282.013z"/>
			<path style="fill:#FFCC66;" d="M1855.771,747.848c1.932,3.225,9.914,5.003,17.52,4.075c4.04-0.474,8.157-0.993,12.354-1.556
				c7.906-1.097,11.482-3.896,8.208-6.366c-59.425-46.747,38.926-182.045,106.147-299.872v-36.071
				C1942.245,526.755,1815.47,684.187,1855.771,747.848z"/>
			<path style="fill:#FFCC66;" d="M1920.686,740.097c3.914,2.113,14.911,2.199,24.182,0.336c4.927-0.973,9.944-1.996,15.052-3.07
				c9.615-2.056,12.774-4.62,7.318-5.867c-90.586-21.877-32.548-127.168,32.762-236.541v-30.603
				C1931.561,579.84,1849.016,703.245,1920.686,740.097z"/>
		</g>
		<g>
			<path style="fill:#FFCC66;" d="M99.168,1089.892c0-33.573-27.217-60.79-60.79-60.79c-14.556,0-27.911,5.122-38.377,13.653v94.275
				c10.466,8.531,23.822,13.653,38.377,13.653C71.951,1150.682,99.168,1123.466,99.168,1089.892z"/>
			<circle style="fill:#FFCC66;" cx="156.915" cy="895.368" r="45.494"/>
			
				<ellipse transform="matrix(0.0696 -0.9976 0.9976 0.0696 -1004.6063 1399.335)" style="fill:#FFCC66;" cx="247.904" cy="1238.254" rx="45.494" ry="45.494"/>
		</g>
		<g>
			<circle style="fill:#FFCC66;" cx="1376.023" cy="1689" r="45.119"/>
			<circle style="fill:#FFCC66;" cx="1464.003" cy="1544.622" r="33.766"/>
			
				<ellipse transform="matrix(0.7071 -0.7071 0.7071 0.7071 -823.5905 1609.9083)" style="fill:#FFCC66;" cx="1531.536" cy="1799.116" rx="33.766" ry="33.766"/>
		</g>
		<g>
			
				<ellipse transform="matrix(0.7071 -0.7071 0.7071 0.7071 141.8636 860.2997)" style="fill:#FFCC66;" cx="1109.406" cy="258.905" rx="37.867" ry="37.867"/>
			
				<ellipse transform="matrix(0.9973 -0.0731 0.0731 0.9973 -12.3162 72.1196)" style="fill:#FFCC66;" cx="978.473" cy="204.21" rx="28.339" ry="28.339"/>
			
				<ellipse transform="matrix(0.8759 -0.4825 0.4825 0.8759 90.6124 584.1869)" style="fill:#FFCC66;" cx="1181.055" cy="115.929" rx="28.339" ry="28.339"/>
		</g>
		<g>
			<path style="fill:#FFCC66;" d="M1975.239,1058.042c-20.674,3.158-34.873,22.477-31.715,43.151s22.477,34.873,43.151,31.715
				c4.847-0.74,9.331-2.378,13.325-4.704v-65.452C1992.783,1058.547,1984.139,1056.683,1975.239,1058.042z"/>
			
				<ellipse transform="matrix(0.9775 -0.2111 0.2111 0.9775 -178.0137 413.9827)" style="fill:#FFCC66;" cx="1850.024" cy="1040.78" rx="28.339" ry="28.339"/>
		</g>
	</g>
	<path style="fill:#FFCC66;" d="M719.382,1840.069c6.329-56.989,12.953-114.533,8.231-171.915
		c-4.16-50.562-18.158-99.424-44.449-142.985c-23.736-39.326-56.232-73.473-94.489-98.92
		c-42.545-28.299-91.891-44.745-142.434-51.001c-53.872-6.668-108.37-2.164-161.246,9.452
		c-57.542,12.641-113.496,32.191-169.179,51.186C77.051,1449.11,38.466,1462.838,0,1476.892v7.475
		c25.527-9.234,51.089-18.375,76.7-27.385c54.95-19.332,110.071-38.924,166.157-54.74c53.354-15.045,108.124-25.002,163.741-23.559
		c53.018,1.376,106.443,12.806,153.533,37.746c40.5,21.449,75.756,52.331,102.852,89.252
		c29.361,40.006,48.097,86.423,55.643,135.426c8.718,56.614,4.155,114.235-1.82,170.877
		c-6.455,61.197-14.964,125.555-10.578,188.016h5.34C708,1946.768,713.614,1892.013,719.382,1840.069z"/>
	<path style="fill:#FFCC66;" d="M309.148,186.116c27.338,30.477,59.829,54.725,91.615,80.233
		c7.224,5.797,14.44,11.768,21.477,17.971c-33.826-7.391-67.892-13.78-100.623-25.418c-24.282-8.634-48.106-20.083-68.058-36.609
		c-21.636-17.922-36.561-41.116-45.33-67.733c-9.559-29.018-12.667-59.645-19.255-89.372C183.972,42.62,176.393,20.824,166.531,0
		h-6.867c3.546,7.194,6.84,14.513,9.827,21.965c10.886,27.164,16.186,55.53,21.544,84.167c5.396,28.838,11.777,58.238,27.25,83.581
		c12.688,20.78,30.85,37.631,51.413,50.468c43.549,27.186,95.004,37.376,144.518,47.809c5.258,1.108,10.554,2.246,15.868,3.428
		c26.067,24.215,48.592,52.135,58.048,87.228c10.89,40.414,3.554,84.092-14.19,121.448
		c-38.616,81.296-122.974,126.022-203.812,155.775c-11.145,4.102-22.415,7.984-33.788,11.62
		c-33.164-2.079-66.214-6.453-98.904-12.335C91.022,646.802,45.336,635.264,0,622.431v3.346
		c29.605,8.596,59.384,16.572,89.436,23.495c44.432,10.236,89.548,18.167,135.003,21.91C151.885,693.105,75.411,704.492,0,696.654
		v3.966c80.1,9.093,162.15-4.109,238.741-28.402c16.363,1.023,32.766,1.481,49.191,1.281
		c62.323-0.758,125.825-10.675,183.339-35.448c50.222-21.633,97.166-56.58,122.261-106.273
		c23.683-46.896,28.346-105.938,1.22-152.468c-25.909-44.443-74.097-67.886-121.593-82.206
		c-12.777-3.852-25.708-7.085-38.703-10.059c-26.015-24.279-55.321-44.87-82.242-68.113c-32.162-27.768-59.708-60.479-81.935-96.68
		C247.032,84.389,229.933,43.001,219.329,0h-8.005c7.072,28.779,17.096,56.875,29.875,83.741
		C258.849,120.844,281.704,155.522,309.148,186.116z M556.728,343.646c20.274,16.35,36.162,37.718,44.354,62.561
		c8.614,26.119,8.839,54.484,2.865,81.191c-12.485,55.807-51.396,99.649-99.774,128.249
		c-51.678,30.551-112.041,45.104-171.368,50.692c-27.237,2.565-54.556,3.052-81.821,1.914
		c80.928-26.866,166.446-66.68,214.064-140.427c22.796-35.304,36.32-77.805,33.729-120.058
		c-2.563-41.789-22.615-78.054-51.187-107.824c-1.893-1.973-3.814-3.914-5.755-5.833
		C482.758,303.809,523.933,317.199,556.728,343.646z"/>
	<path style="fill:#FFCC66;" d="M1838.318,86.938c6.521,25.38,13.085,50.75,19.566,76.141c6.177,24.195,12.871,48.324,18.324,72.694
		c8.82,39.415,13.279,87.787-22.827,115.28c-17.711,13.486-40.188,19.663-61.602,24.327c-21.19,4.615-42.808,7.216-64.481,7.899
		c-44.499,1.402-89.346-5.38-131.668-19.104c-82.405-26.722-156.454-79.993-205.838-151.434
		C1346.974,150.8,1324.679,74.782,1331.388,0h-5.339c-5.895,64.89,9.752,131.831,41.781,188.466
		c43.385,76.717,114.56,136.781,195.756,170.266c41.537,17.13,85.947,27.612,130.831,30.148
		c43.721,2.47,89.713-1.753,131.144-16.589c19.957-7.147,39.006-18.509,50.364-36.946c10.563-17.147,13.392-37.364,12.605-57.185
		c-0.86-21.661-5.926-42.866-11.262-63.785c-6.76-26.501-13.536-52.998-20.245-79.512C1845.647,89.915,1834.325,44.95,1822.949,0
		h-6.939C1823.433,28.982,1830.872,57.961,1838.318,86.938z"/>
	<path style="fill:#FFCC66;" d="M1917.335,1050.807c-7.027,24.895-4.986,52.098,4.466,76.077
		c9.596,24.342,27.161,44.684,48.972,58.969c9.182,6.013,19.004,10.966,29.226,14.865v-3.351
		c-30.431-11.992-56.884-33.231-71.441-63.389c-10.952-22.691-14.645-48.961-9.61-73.702c5.285-25.971,20.88-47.523,41.993-63.122
		c12.05-8.903,25.324-15.95,39.059-22.065v-4.81C1963.01,986.501,1928.917,1009.772,1917.335,1050.807z"/>
	<path style="fill:#FFCC66;" d="M1444.763,1964.398c-17.553,8.098-32.2,21.328-45.317,35.602h8.369
		c6.906-7.189,14.234-13.924,22.153-19.832c19.7-14.699,42.754-21.031,67.125-16.447c24.745,4.654,46.413,18.307,64.633,35.239
		c0.369,0.343,0.728,0.695,1.095,1.041h6.696c-15.468-15.409-33.05-28.664-53.664-36.441
		C1492.763,1954.849,1467.431,1953.941,1444.763,1964.398z"/>
	<path style="fill:#FFCC66;" d="M1000.826,50.076c29.503,38.143,65.891,68.583,108.871,90.428
		c43.9,22.312,93.332,40.367,121.668,83.284c12.454,18.862,19.047,41.508,14.649,64.026c-4.145,21.225-17.364,39.753-33.666,53.531
		c-33.939,28.685-80.258,38.424-123.742,34.13c-45.269-4.47-89.042-23.937-124.123-52.651
		c-36.369-29.769-63.167-69.849-81.191-112.981c-18.738-44.841-28.298-93.299-31.341-141.684
		c-1.423-22.622-1.493-45.413-2.067-68.158h-5.731c0.292,12.119,0.433,24.244,0.686,36.318c1.055,50.284,6.728,100.112,22.46,148.09
		c15.062,45.934,38.723,89.663,72.644,124.45c31.277,32.076,71.527,55.796,114.94,67.018c42.874,11.082,90.379,9.746,130.738-9.669
		c37.635-18.105,71.101-54.234,68.178-98.528c-3.214-48.708-44.913-83.493-84.726-105.037
		c-23.739-12.846-48.765-23.16-72.298-36.402c-21.332-12.004-40.895-26.835-58.475-43.856C1012.969,57.859,992.542,29.98,975.678,0
		h-7.818C977.564,17.347,988.465,34.097,1000.826,50.076z"/>
	<path style="fill:#FFCC66;" d="M1905.477,1581.797c-6.073,5.52-12.544,10.735-20.099,14.084
		c-8.521,3.779-17.811,4.319-27.009,4.143c-15.475-0.295-32.01-2.969-46.456,4.151c-11.926,5.878-18.815,17.304-23.96,29.083
		c-5.377,12.311-9.367,26.051-18.507,36.25c-9.471,10.569-23.354,15.22-36.27,20.051c-11.805,4.415-24.22,9.187-32.978,18.653
		c-10.126,10.945-12.361,25.624-13.88,39.894c-1.666,15.655-3.42,30.93-14.62,42.939c-9.362,10.038-21.637,16.779-31.592,26.168
		c-9.098,8.581-15.116,19.249-15.712,31.911c-0.606,12.887,3.744,25.473,8.162,37.384c4.561,12.295,10.072,24.747,11.478,37.912
		c0.66,6.181,0.29,12.492-1.862,18.365c-2.805,7.655-8.456,13.504-13.282,19.901c-8.284,10.981-11.442,23.958-10.112,37.313h4.174
		c-0.927-9.079,0.227-18.271,4.39-26.471c6.414-12.633,18.358-20.851,21.235-35.383c2.387-12.058-0.76-24.333-4.634-35.73
		c-7.829-23.03-23.715-51.453-6.661-74.149c8.124-10.812,20.278-17.684,30.536-26.207c10.505-8.73,17.898-18.911,21.013-32.374
		c3.459-14.948,2.292-30.957,7.905-45.402c5.236-13.476,17.041-20.809,29.842-26.086c12.251-5.051,25.34-8.557,36.549-15.845
		c11.055-7.188,17.813-17.786,23.016-29.667c5.164-11.792,9.002-24.971,17.614-34.842c10.843-12.428,26.922-13.115,42.285-12.389
		c15.502,0.732,31.244,1.814,45.429-5.698c13.809-7.312,24.031-19.479,35.711-29.546c21.183-18.258,46.229-29.439,72.816-36.318
		v-6.912c-20.766,5.288-40.701,13.208-59.028,25.03C1927.8,1560.506,1917.007,1571.317,1905.477,1581.797z"/>
	<path style="fill:#FFCC66;" d="M639.886,1947.702c-6.568-21.472-25.056-39.072-24.505-62.626
		c0.503-21.48,13.256-40.495,20.783-59.982c7.416-19.199,8.526-38.614-3.165-56.356c-11.094-16.836-29.619-29.134-36.716-48.519
		c-7.749-21.168,2.888-43.741,8.503-64.074c5.249-19.008,6.641-39.817-8.082-55.089c-13.526-14.031-34.595-17.27-52.841-20.814
		c-10.551-2.05-21.208-4.068-31.229-8.066c-12.017-4.795-22.814-12.023-33.046-19.85c-19.696-15.065-37.794-32.513-60.82-42.538
		c-10.987-4.783-22.899-7.925-34.95-7.615c-12.563,0.323-23.205,4.893-33.848,11.24c-10.647,6.351-20.847,11.812-33.548,11.975
		c-11.309,0.145-22.405-2.766-33.196-5.838c-20.331-5.787-42.432-13.656-63.44-6.4c-20.831,7.195-33.146,26.802-51.247,38.204
		c-24.22,15.257-52.176,3.648-77.975,0.076c-21.155-2.929-42.011,0.855-61.558,9.173c-10.071,4.285-19.663,9.427-29.006,15.015
		v8.579c0.387-0.243,0.774-0.489,1.162-0.73c17.748-11.032,36.726-20.909,57.47-24.705c11.021-2.017,22.158-1.942,33.226-0.309
		c12.979,1.915,25.692,5.459,38.764,6.775c12.115,1.219,24.311,0.31,35.376-5.104c9.485-4.64,17.355-11.822,25.001-18.974
		c7.936-7.423,15.861-15.224,25.739-20.037c9.974-4.86,20.997-5.408,31.83-3.874c21.832,3.092,42.275,13.542,64.516,14.251
		c11.277,0.359,21.661-2.381,31.514-7.834c11.286-6.247,21.424-13.547,34.61-15.075c26.807-3.105,51.934,12.891,72.007,28.758
		c19.262,15.226,37.872,32.594,61.297,41.217c19.204,7.068,40.061,7.75,59.338,14.493c9.046,3.165,17.808,7.86,23.628,15.699
		c6.476,8.721,8.185,19.41,6.914,30.012c-2.507,20.914-12.994,40.062-14.479,61.181c-1.519,21.614,10.052,37.285,23.955,52.465
		c6.709,7.325,13.666,14.614,18.586,23.318c5.375,9.511,6.993,20.199,5.092,30.927c-3.764,21.241-16.73,39.439-22.725,59.981
		c-2.819,9.659-4.028,19.811-2.004,29.75c2.19,10.757,7.649,20.453,12.944,29.935c5.384,9.641,11.287,19.686,12.721,30.828
		c1.326,10.303-1.865,20.187-8.024,28.423c-4.009,5.361-8.732,10.038-13.749,14.432h7.55c0.607-0.556,1.219-1.107,1.812-1.674
		C638.34,1984.675,645.887,1967.321,639.886,1947.702z"/>
</g>
</svg>
