<svg height="512pt" viewBox="-55 0 512 512.001" width="512pt" xmlns="http://www.w3.org/2000/svg"><path d="m185.382812 273.988281 21.433594-26.457031v-34.417969c-10.261718 6.847657-22.570312 10.847657-35.804687 10.847657-14.609375 0-27.40625-4.121094-37.78125-10.976563v34.546875l21.433593 26.457031zm0 0" fill="#f4bda4"/><path d="m164.144531 223.636719c-11.769531-1.078125-22.199219-4.894531-30.914062-10.652344v34.546875l21.433593 26.457031h9.480469zm0 0" fill="#efa78b"/><path d="m49.277344 428.265625c6.625 0 11.996094 5.371094 11.996094 11.996094v17.179687c0 1.433594 1.160156 2.59375 2.59375 2.59375h61.640624c-.558593-1.589844-.875-3.289062-.875-5.0625v-167.640625c0-8.472656 6.933594-15.40625 15.402344-15.40625h14.628906l-21.433593-26.453125-97.230469 37.695313s-36 14.800781-36 55.839843v89.257813zm0 0" fill="#fc5f61"/><path d="m50.816406 277.425781-14.816406 5.742188s-36 14.800781-36 55.839843v89.257813h30.914062v-105.746094c0-21.96875 10.3125-36.410156 19.902344-45.09375zm0 0" fill="#ef4d55"/><path d="m275.125 271.925781-68.308594-26.453125-21.433594 26.453125zm0 0" fill="#fc5f61"/><path d="m235.550781 271.925781 6.410157-12.839843-35.144532-13.613282-21.433594 26.453125zm0 0" fill="#ef4d55"/><path d="m124.632812 287.332031c0-8.472656 6.933594-15.40625 15.40625-15.40625h14.675782l-21.429688-26.453125-35.148437 13.613282 26.496093 53.09375zm0 0" fill="#ef4d55"/><path d="m206.816406 245.472656-21.433594 26.453125h28.289063l14.675781-18.113281zm0 0" fill="#e03f4f"/><path d="m134.472656 255.96875 5.566406-2.15625-6.757812-8.339844-35.144531 13.613282 26.492187 53.09375v-24.847657c0-6.160156 3.675782-11.488281 8.929688-13.949219l-3.28125-6.578124c-2.066406-4.140626-.121094-9.164063 4.195312-10.835938zm0 0" fill="#e03f4f"/><path d="m102.261719 496.59375v-10.808594c0-8.472656 7.960937-14.375 16.433593-14.375h23.402344c-7.445312 0-13.699218-6.386718-15.105468-13.433594h-63.125c-1.433594 0-2.59375-1.164062-2.59375-2.597656v-17.179687c0-6.625-5.371094-11.996094-11.996094-11.996094h-49.277344v52.851563c0 18.195312 14.75 32.945312 32.949219 32.945312h83.6875c-8.472657 0-14.375-6.933594-14.375-15.40625zm0 0" fill="#f4bda4"/><path d="m30.828125 481.113281v-54.910156h-30.828125v52.851563c0 18.195312 14.75 32.945312 32.949219 32.945312h19.34375c-12.535157-4.660156-21.464844-16.730469-21.464844-30.886719zm0 0" fill="#efa78b"/><path d="m61.507812 377.515625c-4.375-.132813-7.964843 3.375-7.964843 7.722656v68.363281c0 2.414063 1.957031 4.375 4.375 4.375h11.082031v-72.414062c0-4.230469-3.261719-7.921875-7.492188-8.046875zm0 0" fill="#ef4d55"/><path d="m245.300781 113.988281c-1.746093.941407-3.738281 1.480469-5.851562 1.480469-1.675781 0-3.308594-.179688-4.890625-.515625v47.070313c0 .527343-.027344 1.042968-.039063 1.566406 17.128907 2.59375 30.546875-9.78125 30.546875-24.984375 0-11.84375-8.121094-21.921875-19.765625-24.617188zm0 0" fill="#f4bda4"/><path d="m105.589844 115.46875h-8.113282c-1.492187 0-2.9375-.1875-4.335937-.507812-10.035156 3.484374-18.058594 12.519531-18.058594 23.644531 0 15.183593 13.386719 27.582031 30.546875 24.984375-.011718-.523438-.039062-1.042969-.039062-1.566406zm0 0" fill="#f4bda4"/><path d="m253.253906 117.28125c-2.386718-1.496094-5.058594-2.621094-7.953125-3.292969-1.746093.941407-3.734375 1.480469-5.847656 1.480469-1.675781 0-3.3125-.179688-4.890625-.515625v47.070313c0 .527343-.027344 1.042968-.039062 1.566406 7.117187 1.078125 13.59375-.4375 18.734374-3.660156v-42.648438zm0 0" fill="#efa78b"/><path d="m105.589844 159.933594c-7.230469-4.53125-11.808594-12.453125-11.808594-21.328125 0-8.683594 4.894531-16.078125 11.808594-20.570313v-2.566406h-8.113282c-1.492187 0-2.9375-.1875-4.332031-.507812-10.039062 3.484374-18.058593 12.519531-18.058593 23.644531 0 15.183593 13.382812 27.582031 30.542968 24.984375-.011718-.523438-.039062-1.042969-.039062-1.566406zm0 0" fill="#efa78b"/><path d="m217.148438 91.792969c0-1.269531-1.699219-1.707031-2.296876-.585938-7.71875 14.433594-22.929687 24.261719-40.441406 24.261719h-70.191406v46.554688c0 33.929687 26.582031 64.917968 66.792969 64.917968 35.796875 0 64.917969-29.125 64.917969-64.917968v-47.074219c-10.691407-2.269531-18.78125-11.8125-18.78125-23.15625zm0 0" fill="#f9cbb4"/><path d="m145.402344 162.023438v-46.554688h-41.183594v46.554688c0 33.929687 26.582031 64.917968 66.796875 64.917968 6.945313 0 13.636719-1.109375 19.917969-3.140625-28.050782-8.691406-45.53125-34.265625-45.53125-61.777343zm0 0" fill="#f4bda4"/><path d="m231.714844 30.015625c-6.203125.476563-11.894532-3.421875-13.089844-9.53125-2.007812-10.28125-7.097656-20.484375-26.984375-20.484375h-68.992187c-25.320313 0-45.847657 20.527344-45.847657 45.847656v51.6875c0 10.660156 8.644531 19.304688 19.304688 19.304688h78.304687c17.511719 0 32.722656-9.824219 40.441406-24.261719.601563-1.117187 2.300782-.683594 2.300782.585937 0 13.023438 10.652344 23.675782 23.671875 23.675782 6.828125 0 12.410156-5.582032 12.410156-12.410156v-53.878907c0-12.371093-10.792969-21.359375-21.519531-20.535156zm0 0" fill="#935d38"/><path d="m117.90625 99.210938v-53.902344c0-21.066406 13.628906-38.9375 32.550781-45.308594h-27.808593c-25.320313 0-45.847657 20.527344-45.847657 45.847656v51.6875c0 10.660156 8.644531 19.304688 19.304688 19.304688h32.214843c-6.207031-3.429688-10.414062-10.035156-10.414062-17.628906zm0 0" fill="#7f4d2a"/><path d="m387.367188 470.378906h-273.859376c-8.472656 0-15.40625 6.933594-15.40625 15.40625v10.808594c0 8.472656 6.933594 15.40625 15.40625 15.40625h273.859376c8.472656 0 15.40625-6.933594 15.40625-15.40625v-10.808594c0-8.472656-6.933594-15.40625-15.40625-15.40625zm0 0" fill="#e0d9d5"/><path d="m387.367188 484.519531h-273.859376c-5.40625 0-10.175781-2.828125-12.925781-7.070312-1.5625 2.410156-2.480469 5.269531-2.480469 8.335937v10.808594c0 8.472656 6.933594 15.40625 15.40625 15.40625h273.859376c8.472656 0 15.40625-6.933594 15.40625-15.40625v-10.808594c0-3.066406-.921876-5.925781-2.480469-8.335937-2.753907 4.242187-7.523438 7.070312-12.925781 7.070312zm0 0" fill="#cec8c6"/><path d="m361.902344 270.898438h-222.933594c-8.472656 0-15.402344 6.929687-15.402344 15.40625v170.730468c0 8.472656 6.929688 15.40625 15.402344 15.40625h222.933594c8.472656 0 15.40625-6.933594 15.40625-15.40625v-170.730468c0-8.476563-6.933594-15.40625-15.40625-15.40625zm0 0" fill="#edebed"/><path d="m153.738281 457.035156v-170.730468c0-8.476563 6.933594-15.40625 15.40625-15.40625h-30.175781c-8.472656 0-15.402344 6.929687-15.402344 15.40625v170.730468c0 8.472656 6.929688 15.40625 15.402344 15.40625h30.175781c-8.472656 0-15.40625-6.933594-15.40625-15.40625zm0 0" fill="#e0d9d5"/><path d="m278.882812 350.820312c-8.960937-1.90625-18.355468-2.921874-28.042968-2.921874-9.683594 0-19.082032 1.015624-28.042969 2.921874-1.960937.417969-3.417969 2.121094-3.421875 4.125v.035157c0 22.539062 11.574219 42.367187 29.097656 53.886719 1.4375.945312 3.300782.945312 4.738282 0 17.523437-11.519532 29.097656-31.347657 29.097656-53.886719 0-.011719 0-.023438 0-.035157-.003906-2.007812-1.460938-3.707031-3.425782-4.125zm0 0" fill="#6397d6"/><path d="m249.550781 354.980469c0-.011719 0-.023438 0-.035157 0-2.007812 1.457031-3.707031 3.421875-4.125 4.226563-.898437 8.550782-1.589843 12.953125-2.082031-4.933593-.546875-9.96875-.839843-15.085937-.839843-9.683594 0-19.082032 1.015624-28.042969 2.925781-1.964844.417969-3.421875 2.117187-3.421875 4.125v.03125c0 22.539062 11.574219 42.367187 29.097656 53.886719 1.4375.945312 3.300782.945312 4.738282 0 4.707031-3.09375 8.980468-6.792969 12.71875-10.976563-10.183594-11.394531-16.378907-26.425781-16.378907-42.910156zm0 0" fill="#4686c6"/></svg>