<svg height="512" viewBox="0 0 64 64" width="512" xmlns="http://www.w3.org/2000/svg"><g id="Icons"><g><g><path d="m60 18v32c0 1.1-.9 2-2 2h-52c-1.1 0-2-.9-2-2v-32c0-1.1.9-2 2-2h52c1.1 0 2 .9 2 2z" fill="#fab400"/></g></g><g><g><path d="m46 45v7h-28v-7c0-1.1.9-2 2-2h2v-6c0-1.1.9-2 2-2v-5c0-.55.45-1 1-1h2c.55 0 1 .45 1 1v5h2v-7c0-.55.45-1 1-1h2c.55 0 1 .45 1 1v7h2v-5c0-.55.45-1 1-1h2c.55 0 1 .45 1 1v5c1.1 0 2 .9 2 2v6h2c1.1 0 2 .9 2 2z" fill="#dc9600"/></g><g><path d="m32 26.5c.736 0 1.333-.597 1.333-1.333 0-.737-1.333-2.667-1.333-2.667s-1.333 1.93-1.333 2.667c0 .736.597 1.333 1.333 1.333z" fill="#dc9600"/></g><g><path d="m26 28.5c.736 0 1.333-.597 1.333-1.333 0-.737-1.333-2.667-1.333-2.667s-1.333 1.93-1.333 2.667c0 .736.597 1.333 1.333 1.333z" fill="#dc9600"/></g><g><path d="m38 28.5c.736 0 1.333-.597 1.333-1.333 0-.737-1.333-2.667-1.333-2.667s-1.333 1.93-1.333 2.667c0 .736.597 1.333 1.333 1.333z" fill="#dc9600"/></g><g><path d="m51 33h-2c-.553 0-1 .448-1 1s.447 1 1 1h2c.553 0 1-.448 1-1s-.447-1-1-1z" fill="#dc9600"/></g><g><path d="m47.707 37.878c-.391-.391-1.023-.391-1.414 0-.391.39-.391 1.023 0 1.414l1.414 1.415c.391.391 1.023.391 1.414 0 .391-.39.391-1.023 0-1.414z" fill="#dc9600"/></g><g><path d="m47.707 30.121 1.414-1.414c.391-.391.391-1.023 0-1.414s-1.023-.391-1.414 0l-1.414 1.414c-.391.391-.391 1.023 0 1.414s1.023.391 1.414 0z" fill="#dc9600"/></g><g><path d="m16 34c0-.552-.447-1-1-1h-2c-.553 0-1 .448-1 1s.447 1 1 1h2c.553 0 1-.448 1-1z" fill="#dc9600"/></g><g><path d="m16.293 30.122c.391.391 1.023.391 1.414 0 .391-.39.391-1.023 0-1.414l-1.414-1.415c-.391-.391-1.023-.391-1.414 0-.391.39-.391 1.023 0 1.414z" fill="#dc9600"/></g><g><path d="m17.707 39.293c.391-.391.391-1.023 0-1.414s-1.023-.391-1.414 0l-1.414 1.414c-.391.391-.391 1.023 0 1.414s1.023.391 1.414 0z" fill="#dc9600"/></g></g><g><g><path d="m60 46v4c0 1.1-.9 2-2 2h-4v-4c0-1.128.926-2 2-2z" fill="#0a5078"/></g></g><g><g><path d="m10 48v4h-4c-1.1 0-2-.9-2-2v-4h4c1.074 0 2 .873 2 2z" fill="#0a5078"/></g></g><g><g><circle cx="7" cy="50" fill="#00325a" r="1"/></g></g><g><g><circle cx="57" cy="50" fill="#00325a" r="1"/></g></g><g><g><g><path d="m54 16h4c1.105 0 2 .895 2 2v4h-4c-1.1 0-2-.9-2-2z" fill="#0a5078"/></g></g><g><g><path d="m10 16v4c0 1.105-.895 2-2 2h-4v-4c0-1.1.9-2 2-2z" fill="#0a5078"/></g></g><g><g><circle cx="7" cy="20" fill="#00325a" r="1"/></g></g><g><g><circle cx="57" cy="20" fill="#00325a" r="1"/></g></g><g><g><g><circle cx="7" cy="19" fill="#f0f0f0" r="1"/></g></g><g><g><circle cx="7" cy="49" fill="#f0f0f0" r="1"/></g></g><g><g><circle cx="57" cy="19" fill="#f0f0f0" r="1"/></g></g><g><g><circle cx="57" cy="49" fill="#f0f0f0" r="1"/></g></g></g><g><g><g><path d="m44 13v3h-4v-3c0-.55-.45-1-1-1h-14c-.55 0-1 .45-1 1v3h-4v-3c0-2.76 2.24-5 5-5h14c2.76 0 5 2.24 5 5z" fill="#0a5078"/></g></g><g><g><path d="m20 15h4v1h-4z" fill="#00325a"/></g></g><g><g><path d="m40 15h4v1h-4z" fill="#00325a"/></g></g></g></g><g><path d="m47 54h-30c-.552 0-1 .448-1 1 0 .552.448 1 1 1h30c.552 0 1-.448 1-1 0-.552-.448-1-1-1z" fill="#0a5078"/></g><g><path d="m46 44v10h-28v-10c0-1.1.9-2 2-2h24c1.1 0 2 .9 2 2z" fill="#c80a50"/></g><g><g><path d="m46 45.25v2.5l-4.07 3.05c-.37.28-.89.26-1.25-.04l-4.01-3.44-4.02 3.44c-.38.32-.92.32-1.3 0l-4.02-3.44-4.01 3.44c-.36.3-.87.32-1.24.05-1.7-1.24-3.04-2.21-4.08-2.98v-2.46c1.63 1.18 3.62 2.63 4.62 3.36l4.06-3.49c.38-.32.93-.32 1.3 0l4.02 3.44 4.02-3.44c.37-.32.92-.32 1.3 0l4.06 3.48z" fill="#f0f0f0"/></g></g><g><path d="m34 34h-4v-7c0-.552.448-1 1-1h2c.552 0 1 .448 1 1z" fill="#f0f0f0"/></g><g><path d="m33.333 24.167c0 .736-.597 1.333-1.333 1.333s-1.333-.597-1.333-1.333 1.333-2.667 1.333-2.667 1.333 1.93 1.333 2.667z" fill="#c80a50"/></g><g><path d="m28 36h-4v-7c0-.552.448-1 1-1h2c.552 0 1 .448 1 1z" fill="#f0f0f0"/></g><g><path d="m27.333 26.167c0 .736-.597 1.333-1.333 1.333s-1.333-.597-1.333-1.333 1.333-2.667 1.333-2.667 1.333 1.93 1.333 2.667z" fill="#c80a50"/></g><g><path d="m40 36h-4v-7c0-.552.448-1 1-1h2c.552 0 1 .448 1 1z" fill="#f0f0f0"/></g><g><path d="m39.333 26.167c0 .736-.597 1.333-1.333 1.333s-1.333-.597-1.333-1.333 1.333-2.667 1.333-2.667 1.333 1.93 1.333 2.667z" fill="#c80a50"/></g><g><path d="m42 42h-20v-6c0-1.105.895-2 2-2h16c1.105 0 2 .895 2 2z" fill="#00a0c8"/></g><g><path d="m22 37h20v2h-20z" fill="#f0f0f0"/></g><g><g><g><path d="m51 34h-2c-.553 0-1-.448-1-1s.447-1 1-1h2c.553 0 1 .448 1 1s-.447 1-1 1z" fill="#00a0c8"/></g></g><g><g><g><path d="m47.707 39.707-1.414-1.415c-.391-.391-.391-1.024 0-1.414.391-.391 1.023-.391 1.414 0l1.414 1.415c.391.391.391 1.024 0 1.414-.391.391-1.023.391-1.414 0z" fill="#c80a50"/></g></g></g><g><g><g><path d="m46.293 29.121c-.391-.391-.391-1.023 0-1.414l1.414-1.414c.391-.391 1.023-.391 1.414 0s.391 1.023 0 1.414l-1.414 1.414c-.391.391-1.023.391-1.414 0z" fill="#c80a50"/></g></g></g></g><g><g><g><path d="m13 32h2c.553 0 1 .448 1 1s-.447 1-1 1h-2c-.553 0-1-.448-1-1s.447-1 1-1z" fill="#00a0c8"/></g></g><g><g><g><path d="m16.293 26.293 1.414 1.415c.391.391.391 1.024 0 1.414-.391.391-1.023.391-1.414 0l-1.414-1.415c-.391-.391-.391-1.024 0-1.414.391-.391 1.023-.391 1.414 0z" fill="#c80a50"/></g></g></g><g><g><g><path d="m17.707 36.879c.391.391.391 1.023 0 1.414l-1.414 1.414c-.391.391-1.023.391-1.414 0s-.391-1.023 0-1.414l1.414-1.414c.391-.391 1.023-.391 1.414 0z" fill="#c80a50"/></g></g></g></g></g></svg>